<svg width="108" height="138" viewBox="0 0 108 138" fill="none" xmlns="http://www.w3.org/2000/svg">
<path d="M0 31.6249C0 14.1589 14.2979 0 31.9353 0H86.4624C98.3573 0 108 9.54898 108 21.3282C108 33.93 97.0256 43.7843 84.3609 42.5547L55.1168 39.7155C51.7187 39.3856 48.7742 42.0296 48.7742 45.4108C48.7742 48.355 51.0301 50.8187 53.9891 51.106L93.1604 54.909C101.58 55.7265 108 62.7374 108 71.1155C108 80.109 100.638 87.3997 91.5559 87.3997H59.5315C53.5904 87.3997 48.7742 92.1691 48.7742 98.0524L48.7743 113.85C48.7743 127.188 37.8558 138 24.3872 138C10.9186 138 0.000117526 127.188 8.76332e-05 113.85L4.31719e-05 94.0123C1.93287e-05 83.3739 8.7088 74.7497 19.4516 74.7497H33.0968C36.3036 74.7497 38.9032 72.1754 38.9032 68.9997C38.9032 65.8241 36.3036 63.2497 33.0968 63.2497H19.4516C8.70878 63.2497 0 54.6256 0 43.9872V31.6249Z" fill="#43BE00"/>
</svg>
