<svg width="696" height="105" viewBox="0 0 696 105" fill="none" xmlns="http://www.w3.org/2000/svg">
<path d="M45.014 104.704C36.8727 104.704 29.82 103.047 23.856 99.734C17.892 96.4207 13.206 91.782 9.798 85.818C6.48467 79.854 4.828 72.8487 4.828 64.802C4.828 56.7553 6.48467 49.7973 9.798 43.928C13.206 37.964 17.892 33.3253 23.856 30.012C29.82 26.604 36.8727 24.9 45.014 24.9C52.0193 24.9 58.3147 26.178 63.9 28.734C69.4853 31.1953 74.0293 34.7453 77.532 39.384C81.0347 43.928 83.1173 49.4187 83.78 55.856L58.788 56.992C58.1253 52.3533 56.5633 48.898 54.102 46.626C51.6407 44.2593 48.6113 43.076 45.014 43.076C40.186 43.076 36.4467 44.9693 33.796 48.756C31.24 52.5427 29.962 57.8913 29.962 64.802C29.962 71.8073 31.24 77.2033 33.796 80.99C36.4467 84.7767 40.186 86.67 45.014 86.67C48.706 86.67 51.7827 85.4867 54.244 83.12C56.8 80.7533 58.3147 77.0613 58.788 72.044L83.78 72.896C83.212 79.428 81.224 85.108 77.816 89.936C74.408 94.6693 69.9113 98.314 64.326 100.87C58.7407 103.426 52.3033 104.704 45.014 104.704ZM121.325 104.704C113.373 104.704 106.841 102.858 101.729 99.166C96.6166 95.474 94.0606 90.362 94.0606 83.83C94.0606 77.1087 96.2379 71.902 100.593 68.21C104.947 64.518 111.29 61.82 119.621 60.116L143.335 55.288C143.335 50.8387 142.341 47.478 140.353 45.206C138.459 42.8393 135.714 41.656 132.117 41.656C128.519 41.656 125.679 42.5553 123.597 44.354C121.609 46.058 120.331 48.5193 119.763 51.738L95.3386 50.886C96.8532 42.082 100.782 35.55 107.125 31.29C113.467 27.03 121.798 24.9 132.117 24.9C144.045 24.9 152.943 27.598 158.813 32.994C164.777 38.39 167.759 46.4367 167.759 57.134V81.274C167.759 83.6407 168.137 85.2027 168.895 85.96C169.747 86.7173 170.883 87.096 172.303 87.096H174.149V103C173.391 103.284 172.161 103.521 170.457 103.71C168.753 103.899 167.096 103.994 165.487 103.994C162.552 103.994 159.712 103.521 156.967 102.574C154.221 101.533 151.949 99.734 150.151 97.178C148.352 94.5273 147.453 90.7407 147.453 85.818L149.299 87.664C148.352 91.072 146.648 94.1013 144.187 96.752C141.82 99.308 138.743 101.296 134.957 102.716C131.17 104.041 126.626 104.704 121.325 104.704ZM127.715 88.8C130.744 88.8 133.442 88.1847 135.809 86.954C138.175 85.7233 140.021 83.9247 141.347 81.558C142.672 79.1913 143.335 76.2567 143.335 72.754V69.63L128.567 73.038C125.632 73.7007 123.313 74.742 121.609 76.162C119.999 77.4873 119.195 79.286 119.195 81.558C119.195 83.83 119.905 85.6287 121.325 86.954C122.745 88.1847 124.875 88.8 127.715 88.8ZM219.962 104.704C211.726 104.704 204.863 103.615 199.372 101.438C193.882 99.166 189.669 96.0893 186.734 92.208C183.894 88.3267 182.285 83.9247 181.906 79.002L206.614 78.15C207.182 81.558 208.555 84.114 210.732 85.818C212.91 87.522 216.034 88.374 220.104 88.374C223.418 88.374 225.974 87.8533 227.772 86.812C229.571 85.676 230.47 84.0193 230.47 81.842C230.47 80.3273 230.092 79.0967 229.334 78.15C228.672 77.2033 227.299 76.3513 225.216 75.594C223.228 74.8367 220.246 74.1267 216.27 73.464C207.94 72.1387 201.408 70.5293 196.674 68.636C191.941 66.648 188.58 64.1393 186.592 61.11C184.699 58.0807 183.752 54.294 183.752 49.75C183.752 42.2713 186.687 36.26 192.556 31.716C198.52 27.172 207.514 24.9 219.536 24.9C227.015 24.9 233.263 26.036 238.28 28.308C243.392 30.58 247.321 33.7513 250.066 37.822C252.906 41.798 254.658 46.4367 255.32 51.738L231.038 52.59C230.754 50.2233 230.092 48.188 229.05 46.484C228.009 44.78 226.684 43.502 225.074 42.65C223.465 41.7033 221.524 41.23 219.252 41.23C216.034 41.23 213.478 41.94 211.584 43.36C209.786 44.6853 208.886 46.5313 208.886 48.898C208.886 50.5073 209.265 51.88 210.022 53.016C210.874 54.0573 212.247 54.9093 214.14 55.572C216.034 56.2347 218.59 56.8027 221.808 57.276C230.044 58.3173 236.624 59.8793 241.546 61.962C246.469 63.95 250.019 66.5533 252.196 69.772C254.468 72.896 255.604 76.73 255.604 81.274C255.604 86.2913 254.137 90.5513 251.202 94.054C248.362 97.5567 244.292 100.207 238.99 102.006C233.689 103.805 227.346 104.704 219.962 104.704ZM270.536 103V2.17999H294.96V44.638L291.694 44.922C292.356 40.378 293.776 36.6387 295.954 33.704C298.226 30.7693 301.018 28.592 304.332 27.172C307.74 25.6573 311.432 24.9 315.408 24.9C321.182 24.9 325.963 26.1307 329.75 28.592C333.631 31.0533 336.518 34.4613 338.412 38.816C340.4 43.1707 341.394 48.188 341.394 53.868V103H316.97V59.406C316.97 54.3887 316.212 50.5547 314.698 47.904C313.183 45.2533 310.58 43.928 306.888 43.928C303.101 43.928 300.166 45.3007 298.084 48.046C296.001 50.6967 294.96 54.72 294.96 60.116V103H270.536Z" fill="white"/>
<path d="M360 23.6041C360 10.5679 370.591 0 383.656 0H424.046C432.857 0 440 7.12714 440 15.9189C440 25.3245 431.871 32.6796 422.49 31.7618L400.827 29.6427C398.31 29.3965 396.129 31.3699 396.129 33.8935C396.129 36.091 397.8 37.9299 399.992 38.1444L429.008 40.9828C435.245 41.5929 440 46.8257 440 53.079C440 59.7915 434.546 65.2331 427.819 65.2331H404.097C399.697 65.2331 396.129 68.7929 396.129 73.1841L396.129 84.975C396.129 94.9299 388.041 103 378.065 103C368.088 103 360 94.93 360 84.975L360 70.1686C360 62.2283 366.451 55.7915 374.409 55.7915H384.516C386.892 55.7915 388.817 53.87 388.817 51.4998C388.817 49.1296 386.892 47.2081 384.516 47.2081H374.409C366.451 47.2081 360 40.7713 360 32.831V23.6041Z" fill="url(#paint0_linear_1_440)"/>
<path d="M601.784 101.296L579.348 24.9001H603.63L615.274 72.6122L627.912 24.9001H646.94L659.72 72.6122L671.364 24.9001H695.646L673.21 101.296H650.632L637.426 56.8502L624.362 101.296H601.784Z" fill="white"/>
<path d="M533.26 103C525.214 103 518.161 101.343 512.102 98.03C506.138 94.7167 501.452 90.078 498.044 84.114C494.731 78.15 493.074 71.1447 493.074 63.098C493.074 55.0514 494.731 48.046 498.044 42.082C501.452 36.118 506.138 31.4794 512.102 28.166C518.161 24.8527 525.214 23.196 533.26 23.196C541.307 23.196 548.312 24.8527 554.276 28.166C560.24 31.4794 564.879 36.118 568.192 42.082C571.6 48.046 573.304 55.0514 573.304 63.098C573.304 71.1447 571.6 78.15 568.192 84.114C564.879 90.078 560.24 94.7167 554.276 98.03C548.312 101.343 541.307 103 533.26 103ZM533.26 84.966C537.994 84.966 541.638 83.0727 544.194 79.286C546.845 75.4994 548.17 70.1034 548.17 63.098C548.17 56.1874 546.845 50.8387 544.194 47.052C541.638 43.1707 537.994 41.23 533.26 41.23C528.432 41.23 524.693 43.1707 522.042 47.052C519.486 50.8387 518.208 56.1874 518.208 63.098C518.208 70.1034 519.486 75.4994 522.042 79.286C524.693 83.0727 528.432 84.966 533.26 84.966Z" fill="white"/>
<path d="M470.584 101.296C463.768 101.296 458.467 99.5921 454.68 96.1841C450.893 92.7761 449 87.2381 449 79.5701V0.476074H473.424V76.8721C473.424 79.3334 473.992 81.0847 475.128 82.1261C476.264 83.1674 477.873 83.6881 479.956 83.6881H481.642C483.299 83.6881 484.642 85.0312 484.642 86.6881V98.2961C484.642 99.9529 483.299 101.296 481.642 101.296H470.584Z" fill="white"/>
<defs>
<linearGradient id="paint0_linear_1_440" x1="440" y1="91.289" x2="360.175" y2="11.5362" gradientUnits="userSpaceOnUse">
<stop stop-color="#B1FF86"/>
<stop offset="1" stop-color="#43BE00"/>
</linearGradient>
</defs>
</svg>
